<?xml version="1.0" encoding="UTF-8"?>
<svg xmlns="http://www.w3.org/2000/svg" viewBox="0 0 220 250">
  <path fill="#FFFFFF" d="M203.18,107.57c-13.47,3.78-30.23,5.7-43.78,1.34-9.43-3.04-11.96-18.86-25.04-25.57-28.19-14.46-67.81-4-79.48,26.61-13.7,35.94-5.3,92.16,39.68,98.31,26.38,3.61,49.82-1.97,59.62-28.89,4.98-13.68,2.21-14.51-12.18-16.26-10.49-1.27-41.34,1.54-46.7-6.2-21.36-30.85,46.41-24.05,60.87-23.89,11.51.13,24.14-1.71,36.48.12,17.59,2.61,14.57,16.96,12.26,32.54-2.78,18.77-15.04,45.83-29.46,57.95-32.87,27.62-96.54,27.81-132.54,6.36-56.97-33.95-56.88-137.03-1.82-172.94,50.59-32.99,150-19.01,162.07,50.51Z"/>
</svg>
