<?xml version="1.0" encoding="UTF-8"?>
<svg id="Capa_2" data-name="Capa 2" xmlns="http://www.w3.org/2000/svg" viewBox="0 0 2469.06 245.75">
  <defs>
    <style>
      .cls-1 {
        fill: #f1f1e9;
        stroke-width: 0px;
      }
    </style>
  </defs>
  <g id="Capa_1-2" data-name="Capa 1">
    <g>
      <g>
        <path class="cls-1" d="M1547.52,42.77c7.98-6.74,43.75-6.83,51.65,2.92,8.19,10.12,16.33,56.52,22.44,72.32,7.71,19.92,18.04,39.02,32.37,11.11,9.74-18.96,18.26-74.77,27.86-85.84,3.2-3.69,10.85-5.5,15.64-5.88,2.58-.2,18.42-.11,20.96.14,8.48.82,13.14,6.25,10.41,14.76-18.75,52.21-35.15,105.22-53.26,157.66-2.81,8.13-2.52,22.84-11.61,28.66-7.13,4.57-43.3,4.39-49.48-2.16-10.01-10.6-18.66-66.18-29.17-84.54-8.24-14.39-18.3-13.5-27.59-.61l-28.61,85.09c-7.2,6.97-45.3,8.59-51.91-2.41-16.44-57.53-41.39-115.01-57.46-172.31-1.4-5-4.35-13-2.76-17.84,3.15-9.61,41.92-4.75,49.5-.49,6.56,15.7,21.33,88.57,31.72,96.17,5.63,4.12,12.55,3.06,16.94-2.38,12.81-11.27,25.93-88.95,32.36-94.38Z"/>
        <path class="cls-1" d="M1430.42,228.76l-68.89-177.61c-2.92-10.25-14.36-13.65-24.19-13.86-8.81-.19-31.8,1.36-34.82,10.38l-72.92,187.55c1.48,6.8,42.85,10.23,50.79-1.22,6.03-8.7,7.67-32.34,15.58-36.53,10.28-5.44,62.53-6.27,71.13,2.15,9.48,9.28,6.27,38.46,24.72,41.61,9.1,1.55,25.33,0,35.52,0,3.13,0,4.83-9.26,3.06-12.46ZM1350.45,157.18c-5.81,3.81-34.83,5.41-39.29-1.14-3.92-5.77,9.08-31.13,14.84-32.88,16.55-5.03,31.23,29.57,24.45,34.02Z"/>
        <path class="cls-1" d="M2289.46,103.84c-17.74-45.62-55.55-63.28-101.84-66.32-9.97-.66-70.19-1.29-74.25,5.04,1.78,16-2.75,33.14-2.92,48.23-.26,21.71,2.87,44.68,2.71,66.24-.17,22.17-.97,43.84-2.97,65.92-4.86,8.98-8.95,9.77-17.3,4.06-8.88-6.08-37.42-49.21-41.94-59.88-1.19-2.8-3.29-8.54-1.57-10.91.59-.81,10.95-5.05,16.24-10.99,25.48-28.58,19.37-87.31-19.96-100.74-18.94-6.47-94.76-12.15-110.13-3.32-9.68,5.56-3.21,27.64-3.38,37.39-.39,23.04-1.22,46.4-1.58,69-.23,14.28,5.76,110.13-24.49,60.23-4.25-7.01-10.2-20.83-13.76-28.88-19.63-44.46-32.77-92.32-52.79-136.71-18.08-5.51-39.53-7.93-55.66,4.24l-70.74,188.4c2.33,9.66,36.39,7.68,43.74,4.29,11.7-5.4,9.88-33.95,22.42-41.53,9.86-5.96,62.61-6.33,71.02,2.03,6.39,6.36,7.68,28.04,12.04,35.34,7.21,12.07,47.46,3.73,60.01,3.72,10.46-.01,53.68,8.27,57.74-3.69.67-7.6.04-54.95,2.69-57.72.86-.9,13.6-.09,16.54,1.23,12.39,5.57,30.82,43.81,38.17,56.58,11.63,13.52,51.59,2.5,66.86,2.33,10.98-.12,23.49,5.22,33.83,5.94,27.95,1.94,78.44-1.53,103.52-14.39,7.14-3.66,23.41-15.71,28.78-20.96,19.41-18.96,20.17-52.08,20.09-76.8-.04-10.85,4.28-13.52-1.1-27.35ZM1791.93,156.04c-3.65-5.23,12.47-41.15,26.94-32.75,2.46,1.42,17.13,27.92,16,30.34-4.32,9.24-38.64,8.56-42.95,2.41ZM2016.75,134.26c-8.19,4.8-32.51,10.16-35.87-1.3-1.46-4.97-1.57-45.73-.48-51.64.91-4.9,4.16-6.72,8.81-7.75,10.91-2.42,32.02.22,37.26,11.43,7.2,15.43,6.58,39.72-9.71,49.26ZM2160.4,200.95v-119.63c0-6.59,24.88-6.43,29.63-5.93,31.35,3.33,48.31,25.36,51,55.57,4.64,51.98-29.5,82.64-80.63,69.98Z"/>
        <path class="cls-1" d="M2362.45,202.58c11.44,10.46,49.31,12.29,55.05-6.24,11.77-38.05-47.85-38.44-72.33-48.71-14.63-6.14-33.01-21.82-35.32-38.09-2.3-16.2,4.88-42.27,16.26-54.37,31.56-33.54,136.63-24.99,139.4,31.55.76,15.55-28.25,12.51-38.17,9.52-6.47-1.95-10.55-20.06-23.09-24.29-39.51-13.34-66.92,31.24-14.61,47.78,27.03,8.54,67.15,10.13,77.07,43.73,5.5,18.62,1.44,48.21-12.84,62.14-31.1,30.35-117.02,26.99-139.59-13.91-2.14-3.88-8.81-20.79-9.02-24.24-.65-10.7,32.39-8.64,40.04-6.79,14.2,3.44,9.51,14.94,17.15,21.92Z"/>
      </g>
      <g>
        <path class="cls-1" d="M203.18,107.57c-13.47,3.78-30.23,5.7-43.78,1.34-9.43-3.04-11.96-18.86-25.04-25.57-28.19-14.46-67.81-4-79.48,26.61-13.7,35.94-5.3,92.16,39.68,98.31,26.38,3.61,49.82-1.97,59.62-28.89,4.98-13.68,2.21-14.51-12.18-16.26-10.49-1.27-41.34,1.54-46.7-6.2-21.36-30.85,46.41-24.05,60.87-23.89,11.51.13,24.14-1.71,36.48.12,17.59,2.61,14.57,16.96,12.26,32.54-2.78,18.77-15.04,45.83-29.46,57.95-32.87,27.62-96.54,27.81-132.54,6.36-56.97-33.95-56.88-137.03-1.82-172.94,50.59-32.99,150-19.01,162.07,50.51Z"/>
        <path class="cls-1" d="M888.95,48.14c3.26-5.06,43.37-6.78,47.62,3.52l-.69,184.9c-4.19,6.34-41.89,6.49-46.16,0-5.43-8.25,3.51-68.14-3.23-72.69-6.33-4.27-58.33-4.95-65.32-.64-6.78,4.18-3.48,28.6-3.71,37.68-.12,4.65-2.02,8.85-2.19,13.46-.36,9.54,8.6,24.11-8.4,26.49-10.72,1.5-36.33,3.21-37.95-10.01-2.83-23.1,1.1-53.86.11-78.32-.4-9.82-4.13-22.06-4.67-32.13-1.35-24.98,5.09-47.9,5.69-72.71,10.2-3.16,35.6-6.73,44.07-.06,9.68,7.61-3.33,58.06,4.35,71.57,1.41,2.48,6.53,3.97,9.39,4.41,10.98,1.68,41.62,2.21,52.23-.35,3.11-.75,7.07-2.32,8.18-5.62,3.94-11.72-3.13-63.56.68-69.48Z"/>
        <path class="cls-1" d="M706.95,48.97c-22.21-7.22-58.23-7.55-81.76-5.83-9.9.72-22.91.23-24.17,10.33-6.08,48.72,7.25,109.4-2.71,158.32-.51,2.5-3.41,11.57-7.17,10.59-8.27-2.16-12.92-12.55-18.07-18.81l-60.55-153.38c-3.79-4.27-19.24-7.05-25.25-7.14-3.53-.05-27.26,4.22-28.34,5.17l-59.71,157.68c-24.17,33.16-44.67-25.67-57.77-42.29-.37-4.26,16.56-13.68,20.15-18.34,16.05-20.78,15.65-58.77-.78-79.09-10.5-12.99-32.37-20.9-48.64-22.67-11.35-1.24-74.96-1.4-81.5,3.02-4.09,2.77-1.82,30.12-2.07,37.04-1.3,37.08-1.55,72.81,0,110.23.49,11.72-2.38,33.89-.19,43.42.8,3.47,48.1,12.83,48.46-11.06.13-8.38-3.1-26.27-1.96-33.95.91-6.19,4.99-15.72,12.26-15.32,21.59,1.19,33.42,59.67,55.72,63.63,13.64,2.43,25.97.33,38.47.44,14.17.12,32.02,2.62,45.61-.38,16.8-3.71,13.53-32.93,23.7-40.71,9.06-6.94,64.27-6.94,71.72.31,4.27,4.16,6.71,25.66,10.2,32.35,8.38,16.05,47.26,6.17,62.81,6.06,10.89-.08,46.01,8.76,51.21-3.78,5.99-14.43-3.29-45.08,5.12-52.39,6.79-5.9,46.15-4.26,62.83-13.07,50.33-26.6,47.46-102.48-7.63-120.38ZM320.67,127.34c-5.74,12.21-22.58,16.54-35.24,14.24-16.52-3-8.58-14.28-8.74-28.1-.1-8.26-.64-11.98-.09-21.05.4-6.7-5.96-11.36,6.48-14.17,32.19-7.26,51.12,20.31,37.59,49.08ZM505.84,158.38c-3.14,4.3-33.78,4.6-40.34,2.11-1.54-12.14,11.08-42.56,26.52-32.3,4.55,3.02,17.01,25.82,13.82,30.2ZM690.15,136.85c-7.45,6.82-25.21,9.29-34.89,7.54-10.77-1.95-5.41-8.02-5.98-14.49-1.15-13.03.24-18.24.33-30.33.04-5.98-5.28-14.19-.18-18.39,7.14-5.9,28.02-3.36,36.16.67,16.13,7.98,16.71,43.89,4.57,55.01Z"/>
        <g>
          <path class="cls-1" d="M969.15,47.83c4.1-6.45,128.34-7.11,133.11.31,1.73,2.69.84,23.77-1.98,26.17-9.95,8.47-67.18-.12-82.35,8.53-5.28,13.48,1.07,25.16-2.72,38.49,14.05,10.57,75.12-2.78,79.98,13.2,7.46,24.53-12.01,20.59-28.39,23.82-18.32-.12-51.13-8.77-51.76,17.24-.16,6.68,2.03,26.76,7.54,29.28,17.09,7.81,63.54-4.24,78.64,6.02,2.68,1.82,6.28,27.72-9.17,30.02-24.43,3.65-49.5.88-73.46.18-6.97-.2-49.45,4.32-49.45-5.78V47.83Z"/>
          <path class="cls-1" d="M1099.92,31.4c-.91.58-18.31,2.53-21.42,2.72-24.14,1.53-66,2.22-89.5-.39-14.87-1.66-23.29-3.88-19.79-21.51,1.59-7.99,10.3-9.64,17.2-10.41,22.06-2.46,79.06-2.48,100.93.27,11.36,1.43,17.62,3.48,16.79,16.67-.11,1.8-3.64,12.28-4.2,12.63Z"/>
        </g>
      </g>
    </g>
  </g>
</svg>